<svg xmlns="http://www.w3.org/2000/svg" xmlns:xlink="http://www.w3.org/1999/xlink" viewBox="0 0 174.3699 53.6335"><defs><style>.cls-1,.cls-11,.cls-3{fill:none;stroke-miterlimit:10;}.cls-1,.cls-11{stroke:#fff;}.cls-1{stroke-width:1.0912px;}.cls-2{clip-path:url(#clip-path);}.cls-3{stroke:#000;stroke-width:23.1541px;}.cls-4{fill:#4d4dff;}.cls-5{fill:#bc33ff;}.cls-6{fill:#00e600;}.cls-7{fill:#ffd500;}.cls-8{fill:#0af;}.cls-9{fill:red;}.cls-10{fill:#fff;}.cls-11{stroke-width:1.728px;}</style><clipPath id="clip-path" transform="translate(0.9782 0.9782)"><circle class="cls-1" cx="25.8386" cy="25.8386" r="25.293"/></clipPath></defs><g id="Layer_2" data-name="Layer 2"><g id="Layer_1-2" data-name="Layer 1"><g class="cls-2"><circle class="cls-3" cx="26.8168" cy="26.8168" r="15.2397"/><polygon class="cls-4" points="26.817 26.817 31.769 52.131 41.125 48.279 26.817 26.817 26.817 26.817"/><polygon class="cls-5" points="26.817 26.817 21.652 52.088 31.769 52.131 26.817 26.817 26.817 26.817"/><polygon class="cls-6" points="26.817 26.817 48.279 41.125 52.131 31.769 26.817 26.817 26.817 26.817"/><polyline class="cls-7" points="26.817 26.817 52.131 31.769 52.088 21.652 26.817 26.817"/><polygon class="cls-8" points="26.817 26.817 41.125 48.279 48.279 41.125 26.817 26.817 26.817 26.817"/><polygon class="cls-9" points="26.817 26.817 5.355 12.509 12.509 5.355 26.817 26.817 26.817 26.817"/><circle class="cls-10" cx="26.8168" cy="26.8168" r="3.6357"/><circle class="cls-10" cx="11.9363" cy="32.8622" r="3.6357"/><circle class="cls-10" cx="32.8622" cy="11.9363" r="3.6357"/><polyline class="cls-11" points="47.743 5.891 32.862 11.936 26.817 26.817 11.936 32.862 5.891 47.743"/></g><circle class="cls-1" cx="26.8168" cy="26.8168" r="25.293"/><path class="cls-10" d="M58.8029,30.8876V26.77H78.9386c1.48,0,2.0586-.2573,2.0586-1.351V22.1708c0-1.0293-.6113-1.3833-2.0586-1.3833H65.3966c-5.3066,0-7.333-2.2192-7.333-5.5V13.7436c0-3.2813,2.0264-5.5005,7.333-5.5005H84.9855V12.328H65.3966c-1.3828,0-2.09.354-2.09,1.3833v1.608c0,.9653.61,1.3833,2.09,1.3833h13.542c5.3076,0,7.334,2.2192,7.334,5.5v3.1524c0,3.2808-2.0264,5.5322-7.334,5.5322Z" transform="translate(0.9782 0.9782)"/><path class="cls-10" d="M89.631,30.8876V26.77h20.1357c1.48,0,2.0586-.2573,2.0586-1.351V22.1708c0-1.0293-.6113-1.3833-2.0586-1.3833H96.2247c-5.3066,0-7.333-2.2192-7.333-5.5V13.7436c0-3.2813,2.0264-5.5005,7.333-5.5005h19.5889V12.328H96.2247c-1.3828,0-2.09.354-2.09,1.3833v1.608c0,.9653.61,1.3833,2.09,1.3833h13.542c5.3077,0,7.334,2.2192,7.334,5.5v3.1524c0,3.2808-2.0263,5.5322-7.334,5.5322Z" transform="translate(0.9782 0.9782)"/><path class="cls-10" d="M150.8136,30.8876V16.6064L140.1994,30.8876h-4.3106L125.21,16.6381V30.8876h-4.8574V8.2431h4.89l13.0274,17.53,12.93-17.53h4.4716V30.8876Z" transform="translate(0.9782 0.9782)"/><path class="cls-10" d="M59.37,41.32a1.632,1.632,0,0,0,.5352.6372,2.2221,2.2221,0,0,0,.8047.34,4.6032,4.6032,0,0,0,.9932.1025,2.8071,2.8071,0,0,0,.6591-.0864,2.2956,2.2956,0,0,0,.6641-.2754,1.6967,1.6967,0,0,0,.5127-.4858,1.2339,1.2339,0,0,0,.2051-.7183,1.0472,1.0472,0,0,0-.1455-.5615,1.3294,1.3294,0,0,0-.378-.4,2.2709,2.2709,0,0,0-.5127-.2647,5.1562,5.1562,0,0,0-.5507-.1675L60.44,39.02a5.1789,5.1789,0,0,1-.6533-.2163,1.8483,1.8483,0,0,1-.5557-.3452,1.6361,1.6361,0,0,1-.3838-.5293,1.8186,1.8186,0,0,1-.1455-.7671,2.4748,2.4748,0,0,1,.1074-.6587,1.8378,1.8378,0,0,1,.4053-.7129,2.3663,2.3663,0,0,1,.8154-.5668,3.267,3.267,0,0,1,1.3282-.232,3.8831,3.8831,0,0,1,1.0908.1509,2.6933,2.6933,0,0,1,.9072.4536,2.1856,2.1856,0,0,1,.8535,1.793h-.7344a1.7823,1.7823,0,0,0-.2-.772,1.7237,1.7237,0,0,0-.4638-.5513,2.0377,2.0377,0,0,0-.6592-.3344,2.6715,2.6715,0,0,0-.7832-.1133,3.2352,3.2352,0,0,0-.7285.0806,1.836,1.836,0,0,0-.6162.2592,1.3432,1.3432,0,0,0-.4258.47,1.4712,1.4712,0,0,0-.1621.7236,1.1131,1.1131,0,0,0,.0918.47.9732.9732,0,0,0,.2539.34,1.3216,1.3216,0,0,0,.3721.2271,2.8044,2.8044,0,0,0,.4482.14l1.8789.4644a5.46,5.46,0,0,1,.7725.2646,2.5629,2.5629,0,0,1,.6377.3892,1.6408,1.6408,0,0,1,.4316.5669,1.9,1.9,0,0,1,.1562.81,2.98,2.98,0,0,1-.0263.3452,1.7586,1.7586,0,0,1-.13.459,2.2854,2.2854,0,0,1-.292.4916,1.8458,1.8458,0,0,1-.5176.4483,3.007,3.007,0,0,1-.8154.3237,4.7572,4.7572,0,0,1-1.167.1245,4.8584,4.8584,0,0,1-1.2637-.1567,2.7227,2.7227,0,0,1-.9931-.48,2.1193,2.1193,0,0,1-.6319-.8315,2.7313,2.7313,0,0,1-.1894-1.2207h.7344A2.1828,2.1828,0,0,0,59.37,41.32Z" transform="translate(0.9782 0.9782)"/><path class="cls-10" d="M66.1867,37.2919v.94h.0322a2.1339,2.1339,0,0,1,.707-.81,1.9783,1.9783,0,0,1,1.1182-.2915,1.9013,1.9013,0,0,1,.999.27,1.3275,1.3275,0,0,1,.6.8208,1.7065,1.7065,0,0,1,.7344-.8208,2.1,2.1,0,0,1,1.0361-.27q1.8472,0,1.8477,1.9551v3.78H72.58V39.1171a1.6471,1.6471,0,0,0-.292-1.0532,1.2527,1.2527,0,0,0-1.0254-.3618,1.4592,1.4592,0,0,0-.7343.1674,1.2876,1.2876,0,0,0-.4649.4483,1.9125,1.9125,0,0,0-.2432.6426,3.9347,3.9347,0,0,0-.07.7505v3.1538h-.68v-3.78a2.3711,2.3711,0,0,0-.0595-.5347,1.2477,1.2477,0,0,0-.1944-.4429.9249.9249,0,0,0-.3623-.2968,1.2694,1.2694,0,0,0-.5507-.1084,1.6846,1.6846,0,0,0-.75.1567,1.3764,1.3764,0,0,0-.5186.4321,1.896,1.896,0,0,0-.2969.648,3.1974,3.1974,0,0,0-.0976.8154v3.11H65.56V37.2919Z" transform="translate(0.9782 0.9782)"/><path class="cls-10" d="M74.73,38.1557a1.5976,1.5976,0,0,1,.47-.583,1.9974,1.9974,0,0,1,.6962-.335,3.4066,3.4066,0,0,1,.8858-.1079,3.8877,3.8877,0,0,1,.7344.07,1.77,1.77,0,0,1,.6591.2647,1.4465,1.4465,0,0,1,.4756.5454,1.9708,1.9708,0,0,1,.1836.9126v2.959a.3579.3579,0,0,0,.3994.4106.5234.5234,0,0,0,.2159-.0435v.5728q-.1188.0213-.211.0322a2.0143,2.0143,0,0,1-.2314.0108,1.03,1.03,0,0,1-.416-.07.5579.5579,0,0,1-.2432-.2.7436.7436,0,0,1-.1133-.3076,2.5823,2.5823,0,0,1-.0273-.3945h-.0215a4.5255,4.5255,0,0,1-.3731.481,1.8332,1.8332,0,0,1-.4209.35,1.9394,1.9394,0,0,1-.5293.2164,2.9054,2.9054,0,0,1-.707.0756,2.7981,2.7981,0,0,1-.73-.0918,1.632,1.632,0,0,1-.5937-.292,1.3876,1.3876,0,0,1-.4-.5073,1.6823,1.6823,0,0,1-.1455-.729,1.4412,1.4412,0,0,1,.2588-.9126,1.6318,1.6318,0,0,1,.6856-.5024,3.9369,3.9369,0,0,1,.9619-.2427q.5346-.07,1.085-.1353c.1435-.0141.2705-.0322.3779-.0537a.6622.6622,0,0,0,.27-.1137.5311.5311,0,0,0,.167-.2212.9639.9639,0,0,0,.06-.3672A1.2456,1.2456,0,0,0,78.04,38.28a.9061.9061,0,0,0-.3135-.3511,1.2633,1.2633,0,0,0-.4648-.1782,3.1491,3.1491,0,0,0-.5665-.0488,1.7166,1.7166,0,0,0-1.0585.3081,1.2041,1.2041,0,0,0-.4317.9883h-.6807A2.2639,2.2639,0,0,1,74.73,38.1557Zm3.4024,1.6636a.3925.3925,0,0,1-.2491.1728,2.5507,2.5507,0,0,1-.3232.0752c-.2881.0508-.5859.0957-.8916.1353a4.8893,4.8893,0,0,0-.8369.1782,1.6366,1.6366,0,0,0-.6211.34.812.812,0,0,0-.2432.6319.9892.9892,0,0,0,.1026.4589,1.1089,1.1089,0,0,0,.2754.3457,1.2035,1.2035,0,0,0,.4.2217,1.4564,1.4564,0,0,0,.4639.0757,2.3253,2.3253,0,0,0,.7451-.1191,1.8269,1.8269,0,0,0,.6211-.3457,1.6491,1.6491,0,0,0,.5782-1.2852v-.8852Z" transform="translate(0.9782 0.9782)"/><path class="cls-10" d="M80.8956,37.2919v1.3067h.0215a2.1344,2.1344,0,0,1,.8047-1.0474,2.1063,2.1063,0,0,1,1.3008-.335v.6807a2.0459,2.0459,0,0,0-.8418.124,1.9,1.9,0,0,0-.6533.4155,1.877,1.877,0,0,0-.4268.6431,2.15,2.15,0,0,0-.1513.815v2.97h-.6807V37.2919Z" transform="translate(0.9782 0.9782)"/><path class="cls-10" d="M86.2648,37.2919v.5723H85.131v3.7583a1.2152,1.2152,0,0,0,.0918.5239c.06.126.2139.1963.459.2105a5.2993,5.2993,0,0,0,.583-.0323v.5723c-.1006,0-.2022.0039-.3028.0107s-.2011.0113-.3017.0113a1.0051,1.0051,0,0,1-1.21-1.2422V37.8642h-.9717v-.5723H84.45V35.6181h.6807v1.6738Z" transform="translate(0.9782 0.9782)"/><path class="cls-10" d="M90.9083,41.32a1.632,1.632,0,0,0,.5352.6372,2.2221,2.2221,0,0,0,.8047.34,4.6023,4.6023,0,0,0,.9931.1025,2.8073,2.8073,0,0,0,.6592-.0864,2.2956,2.2956,0,0,0,.6641-.2754,1.6967,1.6967,0,0,0,.5127-.4858,1.2339,1.2339,0,0,0,.2051-.7183,1.0472,1.0472,0,0,0-.1455-.5615,1.3294,1.3294,0,0,0-.378-.4,2.2751,2.2751,0,0,0-.5127-.2647,5.1508,5.1508,0,0,0-.5508-.1675L91.9777,39.02a5.1736,5.1736,0,0,1-.6533-.2163,1.847,1.847,0,0,1-.5557-.3452,1.6361,1.6361,0,0,1-.3838-.5293,1.8186,1.8186,0,0,1-.1455-.7671,2.4748,2.4748,0,0,1,.1074-.6587,1.8365,1.8365,0,0,1,.4053-.7129,2.3663,2.3663,0,0,1,.8154-.5668,3.2668,3.2668,0,0,1,1.3281-.232,3.8833,3.8833,0,0,1,1.0909.1509,2.6933,2.6933,0,0,1,.9072.4536,2.1856,2.1856,0,0,1,.8535,1.793h-.7344a1.7823,1.7823,0,0,0-.2-.772,1.7237,1.7237,0,0,0-.4638-.5513,2.0377,2.0377,0,0,0-.6592-.3344,2.672,2.672,0,0,0-.7832-.1133,3.2352,3.2352,0,0,0-.7285.0806,1.836,1.836,0,0,0-.6162.2592,1.3432,1.3432,0,0,0-.4258.47,1.4712,1.4712,0,0,0-.1621.7236,1.1116,1.1116,0,0,0,.0918.47.9732.9732,0,0,0,.2539.34,1.3225,1.3225,0,0,0,.372.2271,2.8088,2.8088,0,0,0,.4483.14l1.8789.4644a5.4587,5.4587,0,0,1,.7724.2646,2.5611,2.5611,0,0,1,.6377.3892,1.6411,1.6411,0,0,1,.4317.5669,1.9,1.9,0,0,1,.1562.81,3.0026,3.0026,0,0,1-.0263.3452,1.7625,1.7625,0,0,1-.13.459,2.2854,2.2854,0,0,1-.292.4916,1.8458,1.8458,0,0,1-.5176.4483,3.007,3.007,0,0,1-.8154.3237,4.7572,4.7572,0,0,1-1.167.1245,4.8584,4.8584,0,0,1-1.2637-.1567,2.7219,2.7219,0,0,1-.9931-.48,2.1193,2.1193,0,0,1-.6319-.8315,2.7313,2.7313,0,0,1-.1894-1.2207h.7343A2.1841,2.1841,0,0,0,90.9083,41.32Z" transform="translate(0.9782 0.9782)"/><path class="cls-10" d="M97.7247,37.2919v1.0586h.0215a1.8192,1.8192,0,0,1,.7725-.9018,2.3246,2.3246,0,0,1,1.2148-.3189,2.4225,2.4225,0,0,1,1.1065.2378,2.2687,2.2687,0,0,1,.7832.6426,2.7431,2.7431,0,0,1,.4648.9394,4.31,4.31,0,0,1,0,2.2574,2.7431,2.7431,0,0,1-.4648.9394,2.217,2.217,0,0,1-.7832.6372,2.4672,2.4672,0,0,1-1.1065.2324,2.5,2.5,0,0,1-.6054-.0756,2.1475,2.1475,0,0,1-.5616-.2271,1.8528,1.8528,0,0,1-.4589-.3779,1.6187,1.6187,0,0,1-.3077-.5293h-.0214v3.11h-.6807V37.2919Zm3.7315,1.9277a2.38,2.38,0,0,0-.3242-.7612,1.7813,1.7813,0,0,0-.5674-.5454,1.5644,1.5644,0,0,0-.8311-.2109,2.0339,2.0339,0,0,0-.9394.1948,1.63,1.63,0,0,0-.6055.5181,2.0481,2.0481,0,0,0-.3184.7563,4.33,4.33,0,0,0-.0917.9067,3.66,3.66,0,0,0,.1025.8589,2.23,2.23,0,0,0,.335.7613,1.7991,1.7991,0,0,0,.6044.5454,1.8306,1.8306,0,0,0,.9131.2109,1.5644,1.5644,0,0,0,.8311-.2109,1.7824,1.7824,0,0,0,.5674-.5454,2.3751,2.3751,0,0,0,.3242-.7613,3.6477,3.6477,0,0,0,0-1.7173Z" transform="translate(0.9782 0.9782)"/><path class="cls-10" d="M103.8536,41.0234a2.1121,2.1121,0,0,0,.3291.7075,1.888,1.888,0,0,0,.5723.518,1.5971,1.5971,0,0,0,.832.2056,1.6522,1.6522,0,0,0,1.1661-.3891,2.0454,2.0454,0,0,0,.5839-1.0367h.68a2.7158,2.7158,0,0,1-.7929,1.4688,2.3685,2.3685,0,0,1-1.6368.5185,2.5948,2.5948,0,0,1-1.14-.2324,2.0917,2.0917,0,0,1-.7822-.6372,2.7505,2.7505,0,0,1-.4483-.9394,4.2561,4.2561,0,0,1-.1465-1.129,4.0275,4.0275,0,0,1,.1465-1.08,2.88,2.88,0,0,1,.4483-.9454,2.25,2.25,0,0,1,.7822-.6694,2.4117,2.4117,0,0,1,1.14-.2539,2.2043,2.2043,0,0,1,1.917.9775,2.9361,2.9361,0,0,1,.4268,1.0044,4.4144,4.4144,0,0,1,.1074,1.15h-4.2871A3.0237,3.0237,0,0,0,103.8536,41.0234Zm3.37-2.0791a2.04,2.04,0,0,0-.3516-.6319,1.7483,1.7483,0,0,0-.5508-.4429,1.58,1.58,0,0,0-.7344-.1674,1.605,1.605,0,0,0-.7451.1674,1.7483,1.7483,0,0,0-.5508.4429,2.2259,2.2259,0,0,0-.3623.6372,3.1078,3.1078,0,0,0-.1777.74h3.6074A2.5007,2.5007,0,0,0,107.2238,38.9443Z" transform="translate(0.9782 0.9782)"/><path class="cls-10" d="M112.48,38.0585a1.4863,1.4863,0,0,0-1.0586-.3564,1.7226,1.7226,0,0,0-.8535.2055,1.8718,1.8718,0,0,0-.61.54,2.4522,2.4522,0,0,0-.3672.7612,3.11,3.11,0,0,0,0,1.7388,2.4479,2.4479,0,0,0,.3672.7612,1.8659,1.8659,0,0,0,.61.54,1.7162,1.7162,0,0,0,.8535.2056,1.5049,1.5049,0,0,0,.5938-.1191,1.6032,1.6032,0,0,0,.4971-.3291,1.78,1.78,0,0,0,.3564-.5025,1.8906,1.8906,0,0,0,.1728-.6372h.68a2.57,2.57,0,0,1-.7451,1.5821,2.1814,2.1814,0,0,1-1.5547.5673,2.6127,2.6127,0,0,1-1.1289-.2324,2.3864,2.3864,0,0,1-.8261-.6318,2.7484,2.7484,0,0,1-.5079-.9341,3.8429,3.8429,0,0,1,0-2.2788,2.7474,2.7474,0,0,1,.5079-.9341,2.4423,2.4423,0,0,1,.8261-.6372,2.565,2.565,0,0,1,1.1289-.2378,2.428,2.428,0,0,1,1.5176.4751,2.0311,2.0311,0,0,1,.7393,1.4365h-.6807A1.8812,1.8812,0,0,0,112.48,38.0585Z" transform="translate(0.9782 0.9782)"/><path class="cls-10" d="M116.9161,37.2919v.5723h-1.1337v3.7583a1.2137,1.2137,0,0,0,.0918.5239q.0922.189.4589.2105a5.2965,5.2965,0,0,0,.583-.0323v.5723c-.1,0-.2011.0039-.3017.0107s-.2022.0113-.3027.0113a1.0058,1.0058,0,0,1-1.21-1.2422V37.8642H114.13v-.5723h.9717V35.6181h.6807v1.6738Z" transform="translate(0.9782 0.9782)"/><path class="cls-10" d="M118.4611,37.2919v1.3067h.0215a2.1394,2.1394,0,0,1,.8046-1.0474,2.1094,2.1094,0,0,1,1.3018-.335v.6807a2.0509,2.0509,0,0,0-.8428.124,1.8611,1.8611,0,0,0-1.08,1.0586,2.1516,2.1516,0,0,0-.15.815v2.97h-.6807V37.2919Z" transform="translate(0.9782 0.9782)"/><path class="cls-10" d="M121.37,38.1557a1.5976,1.5976,0,0,1,.47-.583,1.997,1.997,0,0,1,.6963-.335,3.4063,3.4063,0,0,1,.8857-.1079,3.8877,3.8877,0,0,1,.7344.07,1.7712,1.7712,0,0,1,.6592.2647,1.4471,1.4471,0,0,1,.4755.5454,1.9708,1.9708,0,0,1,.1836.9126v2.959a.3579.3579,0,0,0,.4.4106.5229.5229,0,0,0,.2158-.0435v.5728q-.1187.0213-.211.0322a2.0131,2.0131,0,0,1-.2314.0108,1.0305,1.0305,0,0,1-.416-.07.5579.5579,0,0,1-.2432-.2.7436.7436,0,0,1-.1133-.3076,2.5823,2.5823,0,0,1-.0273-.3945h-.0215a4.5382,4.5382,0,0,1-.373.481,1.8374,1.8374,0,0,1-.4209.35,1.9407,1.9407,0,0,1-.5293.2164,2.9062,2.9062,0,0,1-.7071.0756,2.7986,2.7986,0,0,1-.73-.0918,1.632,1.632,0,0,1-.5937-.292,1.3874,1.3874,0,0,1-.3994-.5073,1.6808,1.6808,0,0,1-.1455-.729,1.4405,1.4405,0,0,1,.2588-.9126,1.6309,1.6309,0,0,1,.6855-.5024,3.9381,3.9381,0,0,1,.9619-.2427q.5348-.07,1.085-.1353c.1435-.0141.27-.0322.3779-.0537a.6622.6622,0,0,0,.27-.1137.53.53,0,0,0,.167-.2212.9619.9619,0,0,0,.06-.3672,1.2456,1.2456,0,0,0-.1133-.5669.9061.9061,0,0,0-.3135-.3511,1.2633,1.2633,0,0,0-.4648-.1782,3.1488,3.1488,0,0,0-.5664-.0488,1.7169,1.7169,0,0,0-1.0586.3081,1.2041,1.2041,0,0,0-.4317.9883h-.6806A2.2639,2.2639,0,0,1,121.37,38.1557Zm3.4024,1.6636a.3926.3926,0,0,1-.249.1728,2.5558,2.5558,0,0,1-.3233.0752c-.2881.0508-.5859.0957-.8916.1353a4.8934,4.8934,0,0,0-.8369.1782,1.6374,1.6374,0,0,0-.6211.34.812.812,0,0,0-.2431.6319.9892.9892,0,0,0,.1025.4589,1.11,1.11,0,0,0,.2754.3457,1.203,1.203,0,0,0,.4.2217,1.4558,1.4558,0,0,0,.4638.0757,2.3259,2.3259,0,0,0,.7452-.1191,1.8288,1.8288,0,0,0,.6211-.3457,1.6485,1.6485,0,0,0,.5781-1.2852v-.8852Z" transform="translate(0.9782 0.9782)"/><path class="cls-10" d="M127.59,35.1532v7.7115h-.6807V35.1532Z" transform="translate(0.9782 0.9782)"/><path class="cls-10" d="M133.087,35.1532l2.56,6.7613,2.6572-6.7613h1.08v7.7115H138.65V36.2011h-.0214l-2.6358,6.6636h-.6914l-2.5371-6.6636h-.0225v6.6636h-.7343V35.1532Z" transform="translate(0.9782 0.9782)"/><path class="cls-10" d="M140.9611,38.1557a1.5873,1.5873,0,0,1,.47-.583,1.9817,1.9817,0,0,1,.6963-.335,3.4009,3.4009,0,0,1,.8857-.1079,3.9019,3.9019,0,0,1,.7344.07,1.7726,1.7726,0,0,1,.6582.2647,1.4312,1.4312,0,0,1,.4756.5454,1.9708,1.9708,0,0,1,.1836.9126v2.959a.3579.3579,0,0,0,.3994.4106.5226.5226,0,0,0,.2158-.0435v.5728c-.0791.0142-.1494.0249-.21.0322a2.0353,2.0353,0,0,1-.2325.0108,1.0309,1.0309,0,0,1-.416-.07.5577.5577,0,0,1-.2431-.2.7549.7549,0,0,1-.1133-.3076,2.7089,2.7089,0,0,1-.0264-.3945h-.0215a4.6458,4.6458,0,0,1-.373.481,1.8567,1.8567,0,0,1-.4209.35,1.967,1.967,0,0,1-.5293.2164,2.9146,2.9146,0,0,1-.708.0756,2.79,2.79,0,0,1-.7285-.0918,1.6325,1.6325,0,0,1-.5938-.292,1.3909,1.3909,0,0,1-.4-.5073,1.6954,1.6954,0,0,1-.1455-.729,1.4407,1.4407,0,0,1,.26-.9126,1.6252,1.6252,0,0,1,.6855-.5024,3.9294,3.9294,0,0,1,.961-.2427q.5346-.07,1.0859-.1353.2154-.0211.3779-.0537a.664.664,0,0,0,.27-.1137.5246.5246,0,0,0,.1679-.2212.9637.9637,0,0,0,.0586-.3672,1.2326,1.2326,0,0,0-.1133-.5669.89.89,0,0,0-.3134-.3511,1.2514,1.2514,0,0,0-.4639-.1782,3.1593,3.1593,0,0,0-.5674-.0488,1.7159,1.7159,0,0,0-1.0576.3081,1.2046,1.2046,0,0,0-.4326.9883h-.6807A2.2813,2.2813,0,0,1,140.9611,38.1557Zm3.4013,1.6636a.39.39,0,0,1-.248.1728,2.57,2.57,0,0,1-.3242.0752q-.4321.0762-.8907.1353a4.8728,4.8728,0,0,0-.8369.1782,1.63,1.63,0,0,0-.6211.34.812.812,0,0,0-.2431.6319.99.99,0,0,0,.1025.4589,1.1118,1.1118,0,0,0,.2754.3457,1.1992,1.1992,0,0,0,.3994.2217,1.4625,1.4625,0,0,0,.4649.0757,2.3343,2.3343,0,0,0,.7451-.1191,1.8373,1.8373,0,0,0,.6211-.3457,1.6435,1.6435,0,0,0,.5771-1.2852v-.8852Z" transform="translate(0.9782 0.9782)"/><path class="cls-10" d="M148.5744,37.2919v.5723h-1.1338v3.7583a1.2137,1.2137,0,0,0,.0918.5239q.0907.189.4589.2105a5.3,5.3,0,0,0,.5831-.0323v.5723c-.1006,0-.2022.0039-.3028.0107s-.2012.0113-.3017.0113a1.0051,1.0051,0,0,1-1.21-1.2422V37.8642h-.9717v-.5723h.9717V35.6181h.6807v1.6738Z" transform="translate(0.9782 0.9782)"/><path class="cls-10" d="M152.7316,38.0585a1.4867,1.4867,0,0,0-1.0586-.3564,1.7226,1.7226,0,0,0-.8535.2055,1.8722,1.8722,0,0,0-.61.54,2.4522,2.4522,0,0,0-.3672.7612,3.11,3.11,0,0,0,0,1.7388,2.4479,2.4479,0,0,0,.3672.7612,1.8662,1.8662,0,0,0,.61.54,1.7162,1.7162,0,0,0,.8535.2056,1.5044,1.5044,0,0,0,.5937-.1191,1.6021,1.6021,0,0,0,.4971-.3291,1.7756,1.7756,0,0,0,.3564-.5025,1.893,1.893,0,0,0,.1729-.6372h.68a2.5708,2.5708,0,0,1-.7451,1.5821,2.1814,2.1814,0,0,1-1.5547.5673,2.6124,2.6124,0,0,1-1.1289-.2324,2.3877,2.3877,0,0,1-.8262-.6318,2.7482,2.7482,0,0,1-.5078-.9341,3.8407,3.8407,0,0,1,0-2.2788,2.7472,2.7472,0,0,1,.5078-.9341,2.4437,2.4437,0,0,1,.8262-.6372,2.5647,2.5647,0,0,1,1.1289-.2378,2.4284,2.4284,0,0,1,1.5176.4751,2.0314,2.0314,0,0,1,.7392,1.4365h-.6806A1.8819,1.8819,0,0,0,152.7316,38.0585Z" transform="translate(0.9782 0.9782)"/><path class="cls-10" d="M155.6535,35.1532v3.1h.0214a1.6356,1.6356,0,0,1,.6914-.815,2.0267,2.0267,0,0,1,1.0909-.3081,2.7444,2.7444,0,0,1,.9775.1514,1.5491,1.5491,0,0,1,.6318.4262,1.602,1.602,0,0,1,.335.6753,3.82,3.82,0,0,1,.0967.8965v3.5855h-.6807V39.3871a3.24,3.24,0,0,0-.0644-.664,1.4078,1.4078,0,0,0-.2266-.5347,1.1021,1.1021,0,0,0-.4375-.3564,1.6051,1.6051,0,0,0-.6855-.13,1.7319,1.7319,0,0,0-.73.146,1.582,1.582,0,0,0-.54.3994,1.8562,1.8562,0,0,0-.3457.605,2.445,2.445,0,0,0-.1347.7612v3.251h-.6807V35.1532Z" transform="translate(0.9782 0.9782)"/><path class="cls-10" d="M161.5011,35.1532v1.0909H160.82V35.1532Zm0,2.1387v5.5728H160.82V37.2919Z" transform="translate(0.9782 0.9782)"/><path class="cls-10" d="M163.5119,37.2919v.961h.0224a1.6286,1.6286,0,0,1,.69-.815,2.0292,2.0292,0,0,1,1.0909-.3081,2.7406,2.7406,0,0,1,.9775.1514,1.543,1.543,0,0,1,.6318.4262,1.5916,1.5916,0,0,1,.335.6753,3.8177,3.8177,0,0,1,.0977.8965v3.5855h-.6807V39.3871a3.1693,3.1693,0,0,0-.0654-.664,1.3922,1.3922,0,0,0-.2266-.5347,1.0952,1.0952,0,0,0-.4375-.3564,1.6051,1.6051,0,0,0-.6855-.13,1.7309,1.7309,0,0,0-.7286.146,1.5731,1.5731,0,0,0-.54.3994,1.821,1.821,0,0,0-.3457.605,2.4744,2.4744,0,0,0-.1357.7612v3.251h-.68V37.2919Z" transform="translate(0.9782 0.9782)"/><path class="cls-10" d="M173.257,43.5234a2.1676,2.1676,0,0,1-.4268.8422,1.8579,1.8579,0,0,1-.7617.5293,3.1612,3.1612,0,0,1-1.1494.1836,3.4574,3.4574,0,0,1-.8213-.0971,2.3313,2.3313,0,0,1-.7178-.3023,1.7755,1.7755,0,0,1-.5293-.5239,1.5588,1.5588,0,0,1-.2431-.7612h.6806a1.1993,1.1993,0,0,0,.21.5239,1.2663,1.2663,0,0,0,.3779.34,1.6738,1.6738,0,0,0,.4922.189,2.5582,2.5582,0,0,0,.5508.06,1.633,1.633,0,0,0,1.3711-.54,2.4818,2.4818,0,0,0,.4209-1.5551v-.7559H172.69a1.989,1.989,0,0,1-.6963.8315,1.8591,1.8591,0,0,1-1.0742.313,2.6985,2.6985,0,0,1-1.1455-.2212,2.1338,2.1338,0,0,1-.7832-.61,2.4742,2.4742,0,0,1-.4473-.9126,4.2968,4.2968,0,0,1-.1406-1.1177,3.485,3.485,0,0,1,.167-1.0854,2.6842,2.6842,0,0,1,.4863-.8965,2.2564,2.2564,0,0,1,.7881-.6045,2.4974,2.4974,0,0,1,1.0752-.2217,1.9549,1.9549,0,0,1,.5879.0864,1.86,1.86,0,0,1,.5029.2432,2.1665,2.1665,0,0,1,.4043.3618,1.6376,1.6376,0,0,1,.2754.4317h.0215v-.961h.6806v5.1192A4.2491,4.2491,0,0,1,173.257,43.5234Zm-1.5606-1.4849a1.7732,1.7732,0,0,0,.5615-.4971,2.1737,2.1737,0,0,0,.34-.707,2.97,2.97,0,0,0,.1133-.8208,3.5718,3.5718,0,0,0-.0967-.8208,2.3738,2.3738,0,0,0-.3135-.7451,1.6923,1.6923,0,0,0-.5557-.54,1.5759,1.5759,0,0,0-.8261-.2055,1.6355,1.6355,0,0,0-.8321.2,1.7757,1.7757,0,0,0-.5722.5234,2.1916,2.1916,0,0,0-.3291.74,3.4809,3.4809,0,0,0-.1035.8482,3.1209,3.1209,0,0,0,.1084.8208,2.1077,2.1077,0,0,0,.3349.707,1.7316,1.7316,0,0,0,.5723.4971,1.6866,1.6866,0,0,0,.8213.189A1.5556,1.5556,0,0,0,171.6964,42.0385Z" transform="translate(0.9782 0.9782)"/></g></g></svg>
